<svg width="1024" height="1024" viewBox="0 0 1024 1024" fill="none" xmlns="http://www.w3.org/2000/svg">
    <!-- Hintergrund -->
    <defs>
        <linearGradient id="bg" x1="0" y1="0" x2="1024" y2="1024">
            <stop offset="0%" style="stop-color:#007AFF"/>
            <stop offset="100%" style="stop-color:#0056b3"/>
        </linearGradient>
    </defs>
    
    <!-- Basis -->
    <rect width="1024" height="1024" rx="224" fill="url(#bg)"/>
    
    <!-- Tastatur-Symbol -->
    <g transform="translate(212, 362)">
        <!-- Tastatur-Rahmen -->
        <rect width="600" height="300" rx="30" fill="white" fill-opacity="0.9"/>
        
        <!-- Tasten -->
        <g transform="translate(40, 40)">
            <!-- Erste Reihe -->
            <rect width="60" height="60" rx="10" fill="#007AFF" fill-opacity="0.1"/>
            <rect x="80" width="60" height="60" rx="10" fill="#007AFF" fill-opacity="0.1"/>
            <rect x="160" width="60" height="60" rx="10" fill="#007AFF" fill-opacity="0.1"/>
            <rect x="240" width="60" height="60" rx="10" fill="#007AFF" fill-opacity="0.1"/>
            <rect x="320" width="60" height="60" rx="10" fill="#007AFF" fill-opacity="0.1"/>
            <rect x="400" width="60" height="60" rx="10" fill="#007AFF" fill-opacity="0.1"/>
            <rect x="480" width="60" height="60" rx="10" fill="#007AFF" fill-opacity="0.1"/>
            
            <!-- Zweite Reihe -->
            <g transform="translate(0, 80)">
                <rect width="60" height="60" rx="10" fill="#007AFF" fill-opacity="0.1"/>
                <rect x="80" width="60" height="60" rx="10" fill="#007AFF" fill-opacity="0.1"/>
                <rect x="160" width="60" height="60" rx="10" fill="#007AFF" fill-opacity="0.1"/>
                <rect x="240" width="60" height="60" rx="10" fill="#007AFF" fill-opacity="0.1"/>
                <rect x="320" width="60" height="60" rx="10" fill="#007AFF" fill-opacity="0.1"/>
                <rect x="400" width="60" height="60" rx="10" fill="#007AFF" fill-opacity="0.1"/>
            </g>
            
            <!-- Dritte Reihe -->
            <g transform="translate(40, 160)">
                <rect width="60" height="60" rx="10" fill="#007AFF" fill-opacity="0.1"/>
                <rect x="80" width="60" height="60" rx="10" fill="#007AFF" fill-opacity="0.1"/>
                <rect x="160" width="60" height="60" rx="10" fill="#007AFF" fill-opacity="0.1"/>
                <rect x="240" width="60" height="60" rx="10" fill="#007AFF" fill-opacity="0.1"/>
                <rect x="320" width="60" height="60" rx="10" fill="#007AFF" fill-opacity="0.1"/>
            </g>
        </g>
    </g>
    
    <!-- Cursor -->
    <rect x="462" y="262" width="100" height="8" rx="4" fill="white">
        <animate 
            attributeName="opacity"
            values="1;0;1"
            dur="1.5s"
            repeatCount="indefinite"
        />
    </rect>
</svg> 