<svg width="1024" height="1024" viewBox="0 0 1024 1024" fill="none" xmlns="http://www.w3.org/2000/svg">
    <!-- Hintergrund mit macOS-typischer Gradierung -->
    <defs>
        <linearGradient id="grad" x1="0%" y1="0%" x2="100%" y2="100%">
            <stop offset="0%" style="stop-color:#0A84FF;stop-opacity:1" />
            <stop offset="100%" style="stop-color:#0056b3;stop-opacity:1" />
        </linearGradient>
        
        <!-- Schatten für 3D-Effekt -->
        <filter id="shadow" x="-20%" y="-20%" width="140%" height="140%">
            <feGaussianBlur in="SourceAlpha" stdDeviation="15"/>
            <feOffset dx="0" dy="10" result="offsetblur"/>
            <feComponentTransfer>
                <feFuncA type="linear" slope="0.3"/>
            </feComponentTransfer>
            <feMerge>
                <feMergeNode/>
                <feMergeNode in="SourceGraphic"/>
            </feMerge>
        </filter>
    </defs>
    
    <!-- Hintergrund -->
    <rect width="1024" height="1024" rx="224" fill="url(#grad)"/>
    
    <!-- Tastatur mit Schatten -->
    <g transform="translate(162, 312)" filter="url(#shadow)">
        <!-- Tastatur-Gehäuse -->
        <rect width="700" height="400" rx="40" fill="white" fill-opacity="0.95"/>
        
        <!-- Tastatur-Tasten -->
        <!-- Erste Reihe -->
        <g transform="translate(50, 50)">
            <rect width="70" height="70" rx="12" fill="#007AFF" fill-opacity="0.1"/>
            <rect x="90" width="70" height="70" rx="12" fill="#007AFF" fill-opacity="0.1"/>
            <rect x="180" width="70" height="70" rx="12" fill="#007AFF" fill-opacity="0.1"/>
            <rect x="270" width="70" height="70" rx="12" fill="#007AFF" fill-opacity="0.1"/>
            <rect x="360" width="70" height="70" rx="12" fill="#007AFF" fill-opacity="0.1"/>
            <rect x="450" width="70" height="70" rx="12" fill="#007AFF" fill-opacity="0.1"/>
            <rect x="540" width="70" height="70" rx="12" fill="#007AFF" fill-opacity="0.1"/>
        </g>
        
        <!-- Zweite Reihe -->
        <g transform="translate(80, 140)">
            <rect width="70" height="70" rx="12" fill="#007AFF" fill-opacity="0.1"/>
            <rect x="90" width="70" height="70" rx="12" fill="#007AFF" fill-opacity="0.1"/>
            <rect x="180" width="70" height="70" rx="12" fill="#007AFF" fill-opacity="0.1"/>
            <rect x="270" width="70" height="70" rx="12" fill="#007AFF" fill-opacity="0.1"/>
            <rect x="360" width="70" height="70" rx="12" fill="#007AFF" fill-opacity="0.1"/>
            <rect x="450" width="70" height="70" rx="12" fill="#007AFF" fill-opacity="0.1"/>
        </g>
        
        <!-- Dritte Reihe -->
        <g transform="translate(100, 230)">
            <rect width="70" height="70" rx="12" fill="#007AFF" fill-opacity="0.1"/>
            <rect x="90" width="70" height="70" rx="12" fill="#007AFF" fill-opacity="0.1"/>
            <rect x="180" width="70" height="70" rx="12" fill="#007AFF" fill-opacity="0.1"/>
            <rect x="270" width="70" height="70" rx="12" fill="#007AFF" fill-opacity="0.1"/>
            <rect x="360" width="70" height="70" rx="12" fill="#007AFF" fill-opacity="0.1"/>
        </g>
        
        <!-- Leertaste -->
        <rect x="150" y="320" width="400" height="50" rx="12" fill="#007AFF" fill-opacity="0.1"/>
    </g>
    
    <!-- Blinkender Cursor -->
    <rect x="462" y="200" width="100" height="12" fill="#007AFF">
        <animate attributeName="opacity"
                 values="1;0;1" 
                 dur="1.5s"
                 repeatCount="indefinite"/>
    </rect>
</svg>